<svg xmlns="http://www.w3.org/2000/svg" viewBox="222.67794799804688 117.72036743164062 581.9290771484375 572.8251953125" width="581.9290771484375" height="572.8251953125"><path fill="#FAF7F2" d="   M 797.31 363.39   Q 797.52 363.87 797.67 363.85   A 0.64 0.63 81.2 0 1 798.34 364.35   Q 798.65 365.82 799.24 368.90   Q 800.58 375.95 801.87 392.00   Q 803.46 411.78 801.62 431.75   Q 800.97 438.77 800.16 446.60   Q 799.35 454.35 797.95 461.34   Q 787.60 512.82 761.71 554.05   C 730.82 603.25 684.48 642.05 630.86 665.64   Q 598.19 680.02 561.52 685.32   C 529.24 689.98 496.97 689.71 465.03 683.73   C 428.13 676.81 392.02 663.42 360.33 643.41   C 296.83 603.33 250.34 541.16 231.51 468.48   Q 229.62 461.21 227.05 443.55   Q 225.24 431.06 224.90 418.32   Q 224.17 390.86 225.84 373.26   Q 231.56 313.05 260.10 263.34   Q 287.45 215.70 332.78 180.57   Q 376.38 146.77 431.03 130.57   Q 454.44 123.63 481.88 120.91   Q 506.86 118.43 533.62 121.12   Q 573.26 125.12 610.73 139.06   C 650.40 153.83 684.87 178.30 712.85 209.88   Q 744.80 245.95 760.42 291.04   Q 768.93 315.61 772.03 342.76   C 772.66 348.28 772.55 353.32 772.88 357.92   Q 773.26 363.13 772.93 366.59   C 772.55 370.49 772.72 374.01 772.26 378.13   Q 766.51 430.17 735.01 472.02   C 709.63 505.73 674.87 530.43 634.50 541.98   Q 618.92 546.44 598.84 548.37   Q 595.40 548.70 591.56 548.67   C 588.40 548.64 585.44 549.10 581.85 549.02   Q 567.42 548.71 554.37 545.89   Q 551.93 545.36 549.97 544.79   Q 545.64 543.52 541.32 541.01   A 0.83 0.81 -86.3 0 1 541.02 540.66   L 539.43 536.83   A 1.06 1.06 0.0 0 1 540.47 535.36   Q 556.61 536.21 557.75 536.26   C 573.25 536.83 590.22 536.11 605.33 533.18   C 650.75 524.38 690.59 495.86 716.45 457.69   Q 759.42 394.27 741.01 319.12   Q 728.31 267.27 692.68 227.36   Q 684.23 217.90 680.17 214.01   C 656.68 191.50 629.00 173.91 598.59 162.95   Q 572.40 153.50 545.70 149.26   Q 542.39 148.74 539.72 148.62   C 536.78 148.49 534.73 147.62 531.76 147.63   C 528.36 147.64 521.51 146.62 516.73 146.62   Q 501.63 146.63 497.39 146.63   C 492.67 146.64 487.75 147.87 483.15 147.64   C 481.04 147.54 479.21 148.14 476.93 148.41   Q 418.52 155.40 369.28 186.53   Q 336.15 207.47 312.67 233.95   Q 290.93 258.46 275.76 288.52   Q 269.71 300.49 266.01 310.55   Q 256.18 337.29 252.64 363.48   Q 251.08 375.06 250.90 377.87   Q 250.22 388.76 249.96 391.74   C 249.33 399.11 249.46 407.30 250.07 415.16   C 250.45 419.97 250.54 423.91 250.97 427.62   Q 253.35 448.28 256.26 459.74   Q 270.94 517.53 307.78 564.21   Q 309.20 566.01 311.49 565.23   Q 335.26 557.14 361.24 555.08   Q 363.39 554.91 365.25 554.81   Q 384.87 553.73 404.09 554.85   A 0.32 0.31 -88.3 0 0 404.42 554.53   L 404.42 506.08   A 0.79 0.79 0.0 0 0 403.22 505.41   C 393.53 511.39 384.81 515.48 373.13 518.52   Q 358.96 522.21 345.51 523.52   C 341.57 523.90 337.78 524.18 335.50 520.66   Q 333.00 516.79 336.74 513.84   C 353.82 500.34 369.28 483.70 381.87 466.86   Q 387.06 459.92 390.74 453.42   A 0.66 0.66 0.0 0 0 390.28 452.44   Q 389.50 452.30 388.84 452.55   C 377.92 456.81 367.61 460.04 356.26 461.04   C 352.33 461.38 346.61 461.18 346.38 456.28   C 346.28 454.22 347.99 452.36 349.34 451.09   Q 358.23 442.75 368.80 431.83   Q 385.39 414.71 397.03 394.76   A 1.09 1.09 0.0 0 0 396.05 393.12   Q 395.20 393.16 394.05 393.56   Q 384.39 396.98 374.51 397.63   C 371.50 397.83 367.37 397.83 365.66 394.92   Q 364.07 392.20 367.08 389.34   C 386.01 371.31 401.70 348.50 409.13 323.13   Q 410.10 319.81 414.06 319.49   Q 419.44 319.05 421.08 324.21   Q 432.72 361.04 461.77 388.28   A 2.95 2.95 0.0 0 1 462.65 390.96   Q 461.72 395.96 456.25 396.12   Q 444.81 396.47 433.18 393.54   A 0.84 0.83 0.5 0 0 432.16 394.54   Q 432.47 395.88 433.77 397.78   Q 452.76 425.67 478.50 446.29   C 481.86 448.98 488.81 456.00 481.44 459.38   Q 478.89 460.56 473.99 460.43   Q 461.64 460.11 451.63 456.40   Q 446.16 454.38 442.47 453.34   Q 441.80 453.15 441.60 453.70   Q 441.49 454.00 441.68 454.33   Q 443.68 457.93 451.14 468.09   Q 469.52 493.16 493.40 511.68   Q 496.25 513.89 495.20 517.71   C 494.04 521.93 491.31 522.76 486.92 522.70   C 483.17 522.64 479.55 522.82 475.70 522.45   Q 456.22 520.57 438.54 512.22   Q 433.69 509.93 427.32 506.55   A 0.76 0.76 0.0 0 0 426.21 507.22   L 426.21 556.39   A 0.95 0.95 0.0 0 0 427.05 557.33   Q 467.90 562.34 510.45 577.05   Q 528.09 583.14 551.59 587.04   Q 554.25 587.48 555.96 587.53   C 557.87 587.58 560.16 588.23 561.84 588.33   Q 586.33 589.84 604.92 588.09   Q 619.20 586.74 636.22 582.41   Q 667.56 574.44 693.66 557.17   C 728.59 534.07 757.02 500.31 774.97 461.74   Q 784.59 441.06 789.27 418.52   Q 790.11 414.51 791.92 406.23   Q 794.31 395.38 795.13 380.97   Q 795.46 375.18 795.71 369.26   Q 795.82 366.52 796.84 363.41   A 0.25 0.25 0.0 0 1 797.31 363.39   Z   M 634.40 635.49   Q 633.32 636.26 632.22 636.72   Q 615.50 643.74 599.98 648.28   Q 591.01 650.90 576.38 653.50   Q 558.77 656.64 552.49 657.22   Q 542.24 658.16 535.50 657.36   C 517.60 655.24 499.54 649.60 482.03 643.23   Q 474.98 640.66 449.59 633.45   Q 436.73 629.80 412.81 625.97   Q 405.46 624.79 389.07 625.71   Q 389.00 625.72 388.93 625.73   L 383.54 626.91   A 0.56 0.55 57.8 0 0 383.32 627.89   Q 385.94 629.93 389.13 631.60   Q 400.70 637.67 412.43 642.07   Q 437.16 651.33 458.15 657.23   C 468.95 660.26 480.83 662.40 491.76 663.19   C 497.76 663.62 503.62 664.27 508.17 664.35   C 543.37 664.98 578.05 660.40 612.07 649.48   Q 637.50 641.32 660.17 627.65   C 688.51 610.57 713.93 588.75 734.44 563.92   Q 747.81 547.72 758.18 529.18   Q 761.69 522.90 763.81 516.99   Q 763.98 516.54 763.82 516.38   A 1.17 1.05 -46.8 0 0 762.20 516.52   C 758.16 521.07 753.86 527.70 749.16 533.08   Q 731.09 553.74 716.58 565.84   C 693.84 584.78 666.25 598.00 637.91 606.45   C 626.18 609.95 613.85 612.04 602.00 613.43   C 573.67 616.76 544.03 613.37 517.03 604.94   Q 498.62 599.18 489.33 596.19   Q 437.26 579.38 384.66 579.18   Q 370.33 579.13 359.89 580.48   Q 344.90 582.42 335.57 585.35   Q 332.89 586.20 330.86 587.05   A 1.08 1.07 -30.7 0 0 330.43 588.72   Q 331.91 590.55 333.96 592.35   Q 343.91 601.09 352.92 608.07   Q 354.62 609.40 356.04 610.13   A 1.41 1.41 0.0 0 0 357.00 610.24   C 384.60 603.45 412.46 604.64 440.31 611.44   Q 460.96 616.48 472.60 620.69   Q 501.20 631.04 507.76 633.24   Q 524.43 638.81 545.13 642.13   Q 545.32 642.17 552.96 643.04   Q 564.95 644.40 577.75 644.38   C 582.61 644.37 587.00 643.58 592.66 643.08   Q 604.45 642.03 617.01 639.20   Q 630.68 636.12 634.25 635.17   A 0.18 0.18 0.0 0 1 634.40 635.49   Z" data-svg-id="svg-elem-1775664130216-am2kapddu" id="svg-elem-1775664130216-am2kapddu"/></svg>