<svg xmlns="http://www.w3.org/2000/svg" version="1.1" viewBox="204.67794799804688 99.72036743164062 617.9291076660156 820.1601257324219">
<path fill="#FAF7F2" d="   M 797.31 363.39   Q 797.52 363.87 797.67 363.85   A 0.64 0.63 81.2 0 1 798.34 364.35   Q 798.65 365.82 799.24 368.90   Q 800.58 375.95 801.87 392.00   Q 803.46 411.78 801.62 431.75   Q 800.97 438.77 800.16 446.60   Q 799.35 454.35 797.95 461.34   Q 787.60 512.82 761.71 554.05   C 730.82 603.25 684.48 642.05 630.86 665.64   Q 598.19 680.02 561.52 685.32   C 529.24 689.98 496.97 689.71 465.03 683.73   C 428.13 676.81 392.02 663.42 360.33 643.41   C 296.83 603.33 250.34 541.16 231.51 468.48   Q 229.62 461.21 227.05 443.55   Q 225.24 431.06 224.90 418.32   Q 224.17 390.86 225.84 373.26   Q 231.56 313.05 260.10 263.34   Q 287.45 215.70 332.78 180.57   Q 376.38 146.77 431.03 130.57   Q 454.44 123.63 481.88 120.91   Q 506.86 118.43 533.62 121.12   Q 573.26 125.12 610.73 139.06   C 650.40 153.83 684.87 178.30 712.85 209.88   Q 744.80 245.95 760.42 291.04   Q 768.93 315.61 772.03 342.76   C 772.66 348.28 772.55 353.32 772.88 357.92   Q 773.26 363.13 772.93 366.59   C 772.55 370.49 772.72 374.01 772.26 378.13   Q 766.51 430.17 735.01 472.02   C 709.63 505.73 674.87 530.43 634.50 541.98   Q 618.92 546.44 598.84 548.37   Q 595.40 548.70 591.56 548.67   C 588.40 548.64 585.44 549.10 581.85 549.02   Q 567.42 548.71 554.37 545.89   Q 551.93 545.36 549.97 544.79   Q 545.64 543.52 541.32 541.01   A 0.83 0.81 -86.3 0 1 541.02 540.66   L 539.43 536.83   A 1.06 1.06 0.0 0 1 540.47 535.36   Q 556.61 536.21 557.75 536.26   C 573.25 536.83 590.22 536.11 605.33 533.18   C 650.75 524.38 690.59 495.86 716.45 457.69   Q 759.42 394.27 741.01 319.12   Q 728.31 267.27 692.68 227.36   Q 684.23 217.90 680.17 214.01   C 656.68 191.50 629.00 173.91 598.59 162.95   Q 572.40 153.50 545.70 149.26   Q 542.39 148.74 539.72 148.62   C 536.78 148.49 534.73 147.62 531.76 147.63   C 528.36 147.64 521.51 146.62 516.73 146.62   Q 501.63 146.63 497.39 146.63   C 492.67 146.64 487.75 147.87 483.15 147.64   C 481.04 147.54 479.21 148.14 476.93 148.41   Q 418.52 155.40 369.28 186.53   Q 336.15 207.47 312.67 233.95   Q 290.93 258.46 275.76 288.52   Q 269.71 300.49 266.01 310.55   Q 256.18 337.29 252.64 363.48   Q 251.08 375.06 250.90 377.87   Q 250.22 388.76 249.96 391.74   C 249.33 399.11 249.46 407.30 250.07 415.16   C 250.45 419.97 250.54 423.91 250.97 427.62   Q 253.35 448.28 256.26 459.74   Q 270.94 517.53 307.78 564.21   Q 309.20 566.01 311.49 565.23   Q 335.26 557.14 361.24 555.08   Q 363.39 554.91 365.25 554.81   Q 384.87 553.73 404.09 554.85   A 0.32 0.31 -88.3 0 0 404.42 554.53   L 404.42 506.08   A 0.79 0.79 0.0 0 0 403.22 505.41   C 393.53 511.39 384.81 515.48 373.13 518.52   Q 358.96 522.21 345.51 523.52   C 341.57 523.90 337.78 524.18 335.50 520.66   Q 333.00 516.79 336.74 513.84   C 353.82 500.34 369.28 483.70 381.87 466.86   Q 387.06 459.92 390.74 453.42   A 0.66 0.66 0.0 0 0 390.28 452.44   Q 389.50 452.30 388.84 452.55   C 377.92 456.81 367.61 460.04 356.26 461.04   C 352.33 461.38 346.61 461.18 346.38 456.28   C 346.28 454.22 347.99 452.36 349.34 451.09   Q 358.23 442.75 368.80 431.83   Q 385.39 414.71 397.03 394.76   A 1.09 1.09 0.0 0 0 396.05 393.12   Q 395.20 393.16 394.05 393.56   Q 384.39 396.98 374.51 397.63   C 371.50 397.83 367.37 397.83 365.66 394.92   Q 364.07 392.20 367.08 389.34   C 386.01 371.31 401.70 348.50 409.13 323.13   Q 410.10 319.81 414.06 319.49   Q 419.44 319.05 421.08 324.21   Q 432.72 361.04 461.77 388.28   A 2.95 2.95 0.0 0 1 462.65 390.96   Q 461.72 395.96 456.25 396.12   Q 444.81 396.47 433.18 393.54   A 0.84 0.83 0.5 0 0 432.16 394.54   Q 432.47 395.88 433.77 397.78   Q 452.76 425.67 478.50 446.29   C 481.86 448.98 488.81 456.00 481.44 459.38   Q 478.89 460.56 473.99 460.43   Q 461.64 460.11 451.63 456.40   Q 446.16 454.38 442.47 453.34   Q 441.80 453.15 441.60 453.70   Q 441.49 454.00 441.68 454.33   Q 443.68 457.93 451.14 468.09   Q 469.52 493.16 493.40 511.68   Q 496.25 513.89 495.20 517.71   C 494.04 521.93 491.31 522.76 486.92 522.70   C 483.17 522.64 479.55 522.82 475.70 522.45   Q 456.22 520.57 438.54 512.22   Q 433.69 509.93 427.32 506.55   A 0.76 0.76 0.0 0 0 426.21 507.22   L 426.21 556.39   A 0.95 0.95 0.0 0 0 427.05 557.33   Q 467.90 562.34 510.45 577.05   Q 528.09 583.14 551.59 587.04   Q 554.25 587.48 555.96 587.53   C 557.87 587.58 560.16 588.23 561.84 588.33   Q 586.33 589.84 604.92 588.09   Q 619.20 586.74 636.22 582.41   Q 667.56 574.44 693.66 557.17   C 728.59 534.07 757.02 500.31 774.97 461.74   Q 784.59 441.06 789.27 418.52   Q 790.11 414.51 791.92 406.23   Q 794.31 395.38 795.13 380.97   Q 795.46 375.18 795.71 369.26   Q 795.82 366.52 796.84 363.41   A 0.25 0.25 0.0 0 1 797.31 363.39   Z   M 634.40 635.49   Q 633.32 636.26 632.22 636.72   Q 615.50 643.74 599.98 648.28   Q 591.01 650.90 576.38 653.50   Q 558.77 656.64 552.49 657.22   Q 542.24 658.16 535.50 657.36   C 517.60 655.24 499.54 649.60 482.03 643.23   Q 474.98 640.66 449.59 633.45   Q 436.73 629.80 412.81 625.97   Q 405.46 624.79 389.07 625.71   Q 389.00 625.72 388.93 625.73   L 383.54 626.91   A 0.56 0.55 57.8 0 0 383.32 627.89   Q 385.94 629.93 389.13 631.60   Q 400.70 637.67 412.43 642.07   Q 437.16 651.33 458.15 657.23   C 468.95 660.26 480.83 662.40 491.76 663.19   C 497.76 663.62 503.62 664.27 508.17 664.35   C 543.37 664.98 578.05 660.40 612.07 649.48   Q 637.50 641.32 660.17 627.65   C 688.51 610.57 713.93 588.75 734.44 563.92   Q 747.81 547.72 758.18 529.18   Q 761.69 522.90 763.81 516.99   Q 763.98 516.54 763.82 516.38   A 1.17 1.05 -46.8 0 0 762.20 516.52   C 758.16 521.07 753.86 527.70 749.16 533.08   Q 731.09 553.74 716.58 565.84   C 693.84 584.78 666.25 598.00 637.91 606.45   C 626.18 609.95 613.85 612.04 602.00 613.43   C 573.67 616.76 544.03 613.37 517.03 604.94   Q 498.62 599.18 489.33 596.19   Q 437.26 579.38 384.66 579.18   Q 370.33 579.13 359.89 580.48   Q 344.90 582.42 335.57 585.35   Q 332.89 586.20 330.86 587.05   A 1.08 1.07 -30.7 0 0 330.43 588.72   Q 331.91 590.55 333.96 592.35   Q 343.91 601.09 352.92 608.07   Q 354.62 609.40 356.04 610.13   A 1.41 1.41 0.0 0 0 357.00 610.24   C 384.60 603.45 412.46 604.64 440.31 611.44   Q 460.96 616.48 472.60 620.69   Q 501.20 631.04 507.76 633.24   Q 524.43 638.81 545.13 642.13   Q 545.32 642.17 552.96 643.04   Q 564.95 644.40 577.75 644.38   C 582.61 644.37 587.00 643.58 592.66 643.08   Q 604.45 642.03 617.01 639.20   Q 630.68 636.12 634.25 635.17   A 0.18 0.18 0.0 0 1 634.40 635.49   Z" data-svg-id="svg-elem-1775664130216-am2kapddu" id="svg-elem-1775664130216-am2kapddu"/>
<path fill="#faf7f2" d="   M 491.79 793.61   C 493.91 794.71 496.22 797.12 499.01 798.89   Q 511.64 806.90 526.99 805.21   C 531.94 804.67 536.59 801.18 536.78 795.75   Q 536.97 790.55 532.43 787.79   Q 527.55 784.83 523.08 783.66   C 512.62 780.93 503.19 779.63 494.58 774.19   Q 483.31 767.07 482.78 753.54   C 482.06 735.06 495.44 723.99 513.23 722.34   Q 517.12 721.99 519.51 721.94   Q 538.69 721.54 553.57 733.34   A 1.41 1.41 0.0 0 1 553.86 735.25   L 544.99 748.29   A 1.08 1.08 0.0 0 1 543.58 748.63   C 540.67 747.04 536.46 744.02 532.80 742.65   C 526.02 740.11 517.78 738.41 510.86 740.87   C 505.78 742.67 503.58 747.38 504.79 752.54   C 506.13 758.24 517.19 761.08 522.25 762.24   C 536.60 765.54 553.61 770.02 557.05 786.69   C 560.26 802.29 552.37 815.57 537.25 820.87   C 521.41 826.42 503.15 823.54 488.91 815.52   Q 483.80 812.64 480.04 808.42   A 1.02 1.02 0.0 0 1 480.00 807.11   L 490.48 793.89   A 1.05 1.05 0.0 0 1 491.79 793.61   Z" data-svg-id="svg-elem-1775664130217-1icbvtb5m" id="svg-elem-1775664130217-1icbvtb5m"/>
<path fill="#faf7f2" d="   M 656.67 772.91   C 656.66 775.56 656.68 778.31 656.37 781.71   A 0.92 0.91 2.5 0 1 655.46 782.54   L 611.03 782.54   A 0.40 0.39 90.0 0 0 610.64 782.94   L 610.64 802.86   A 0.57 0.57 0.0 0 0 611.21 803.43   L 661.23 803.43   A 1.17 1.17 0.0 0 1 662.40 804.60   L 662.40 821.63   A 0.69 0.69 0.0 0 1 661.71 822.32   L 590.79 822.24   A 1.16 1.15 -15.1 0 1 589.82 821.69   Q 589.50 821.17 589.46 817.49   Q 589.39 810.83 589.42 772.86   Q 589.45 734.89 589.54 728.22   Q 589.58 724.54 589.90 724.03   A 1.16 1.15 15.2 0 1 590.87 723.48   L 661.79 723.52   A 0.69 0.69 0.0 0 1 662.48 724.21   L 662.45 741.24   A 1.17 1.17 0.0 0 1 661.28 742.41   L 611.26 742.32   A 0.57 0.57 0.0 0 0 610.69 742.89   L 610.66 762.81   A 0.40 0.39 -89.9 0 0 611.05 763.21   L 655.48 763.29   A 0.92 0.91 -2.4 0 1 656.39 764.12   C 656.69 767.52 656.67 770.27 656.67 772.91   Z" data-svg-id="svg-elem-1775664130217-wwkrwvovn" id="svg-elem-1775664130217-wwkrwvovn"/>
<path fill="#faf7f2" d="   M 264.88 725.00   A 1.51 1.51 0.0 0 1 266.39 723.49   Q 273.05 723.47 307.77 723.34   Q 320.45 723.30 325.56 724.87   C 344.89 730.82 352.39 752.07 344.57 770.06   C 341.78 776.47 336.83 781.70 330.47 784.57   Q 328.15 785.62 326.65 786.54   A 1.20 1.20 0.0 0 0 326.29 788.25   L 349.16 821.05   A 0.69 0.69 0.0 0 1 348.60 822.14   Q 338.49 822.26 328.27 822.09   Q 325.31 822.04 323.84 819.82   Q 318.41 811.57 303.79 790.38   A 2.16 2.15 -17.1 0 0 302.01 789.44   L 287.20 789.44   A 0.62 0.62 0.0 0 0 286.58 790.06   L 286.58 820.61   A 1.56 1.55 90.0 0 1 285.03 822.17   L 267.10 822.17   A 2.22 2.22 0.0 0 1 264.88 819.95   L 264.88 725.00   Z   M 286.58 742.66   L 286.58 771.00   A 0.31 0.31 0.0 0 0 286.89 771.31   L 311.78 771.31   A 13.62 12.71 0.0 0 0 325.40 758.60   L 325.40 755.06   A 13.62 12.71 -0.0 0 0 311.78 742.35   L 286.89 742.35   A 0.31 0.31 0.0 0 0 286.58 742.66   Z" data-svg-id="svg-elem-1775664130217-mnfti3hj8" id="svg-elem-1775664130217-mnfti3hj8"/>
<path fill="#faf7f2" d="   M 401.13 803.38   Q 417.63 803.37 448.47 803.37   Q 451.14 803.37 452.62 803.83   A 0.94 0.94 0.0 0 1 453.29 804.73   L 453.29 821.29   A 0.89 0.88 0.0 0 1 452.40 822.17   L 380.17 822.17   A 0.57 0.57 0.0 0 1 379.60 821.60   L 379.60 724.69   A 1.26 1.26 0.0 0 1 380.86 723.43   L 451.75 723.43   A 1.23 1.22 -0.0 0 1 452.98 724.65   L 452.98 741.26   A 1.06 1.05 -90.0 0 1 451.93 742.32   L 401.92 742.32   A 1.31 1.31 0.0 0 0 400.61 743.63   L 400.61 762.78   A 0.66 0.66 0.0 0 0 401.27 763.44   L 446.79 763.44   A 0.74 0.74 0.0 0 1 447.53 764.18   L 447.53 781.11   A 1.53 1.53 0.0 0 1 446.00 782.64   L 401.14 782.64   A 0.50 0.49 -90.0 0 0 400.65 783.14   L 400.65 802.90   A 0.48 0.48 0.0 0 0 401.13 803.38   Z" data-svg-id="svg-elem-1775664130217-jrrzut0ej" id="svg-elem-1775664130217-jrrzut0ej"/>
<path fill="#faf7f2" d="   M 728.23 723.42   Q 765.43 723.39 766.50 723.37   Q 768.21 723.34 770.03 723.71   A 0.77 0.76 -84.5 0 1 770.64 724.46   L 770.64 741.39   A 0.92 0.92 0.0 0 1 769.72 742.31   L 739.19 742.31   A 0.58 0.57 -90.0 0 0 738.62 742.89   L 738.62 820.34   A 1.84 1.83 -4.2 0 1 737.05 822.15   Q 736.94 822.17 728.31 822.18   Q 719.67 822.18 719.57 822.17   A 1.84 1.83 4.1 0 1 718.00 820.36   L 717.87 742.91   A 0.58 0.57 89.9 0 0 717.30 742.33   L 686.77 742.38   A 0.92 0.92 0.0 0 1 685.85 741.46   L 685.82 724.53   A 0.77 0.76 84.4 0 1 686.43 723.78   Q 688.25 723.40 689.96 723.43   Q 691.03 723.45 728.23 723.42   Z" data-svg-id="svg-elem-1775664130217-r6cc9y4ca" id="svg-elem-1775664130217-r6cc9y4ca"/>
<path fill="#faf7f2" d="   M 344.81 861.51   C 336.69 855.76 326.66 856.51 320.26 864.38   A 4.88 4.70 76.9 0 0 319.55 865.57   Q 315.52 875.45 320.22 884.09   Q 323.24 889.67 330.56 890.60   Q 339.66 891.75 345.47 886.63   A 1.15 1.15 0.0 0 1 347.04 886.68   L 351.50 891.14   A 1.01 1.01 0.0 0 1 351.46 892.61   Q 343.17 899.94 332.90 899.88   Q 325.55 899.84 319.75 896.25   C 309.47 889.89 304.61 877.01 309.09 865.53   C 313.39 854.54 323.60 847.99 335.29 848.76   C 340.99 849.13 346.13 850.85 350.29 854.53   A 1.75 1.75 0.0 0 1 350.51 856.92   L 347.13 861.18   A 1.71 1.70 36.8 0 1 344.81 861.51   Z" data-svg-id="svg-elem-1775664130217-papqx3cvj" id="svg-elem-1775664130217-papqx3cvj"/>
<path fill="#faf7f2" d="   M 399.30 889.61   Q 389.06 889.56 388.72 889.58   A 1.49 1.49 0.0 0 0 387.46 890.48   L 384.24 898.04   A 2.41 2.40 11.6 0 1 382.00 899.51   L 375.08 899.45   A 0.64 0.63 7.2 0 1 374.46 898.67   Q 374.87 897.08 375.58 895.38   Q 377.59 890.54 393.15 853.41   Q 394.13 851.07 395.03 850.08   A 1.35 1.35 0.0 0 1 395.91 849.65   Q 397.16 849.54 399.50 849.55   Q 401.84 849.57 403.09 849.68   A 1.35 1.35 0.0 0 1 403.96 850.13   Q 404.85 851.12 405.81 853.47   Q 421.00 890.76 422.97 895.61   Q 423.66 897.32 424.05 898.91   A 0.64 0.63 -6.7 0 1 423.43 899.69   L 416.51 899.68   A 2.41 2.40 -11.0 0 1 414.28 898.19   L 411.13 890.60   A 1.49 1.49 0.0 0 0 409.89 889.69   Q 409.54 889.66 399.30 889.61   Z   M 391.76 879.18   A 0.80 0.80 0.0 0 0 392.50 880.28   L 405.79 880.38   A 0.80 0.80 0.0 0 0 406.54 879.28   L 400.01 862.84   A 0.80 0.80 0.0 0 0 398.53 862.83   L 391.76 879.18   Z" data-svg-id="svg-elem-1775664130217-1bn7nvwc0" id="svg-elem-1775664130217-1bn7nvwc0"/>
<path fill="#faf7f2" d="   M 635.14 849.63   Q 637.48 849.63 638.73 849.75   A 1.35 1.35 0.0 0 1 639.60 850.19   Q 640.49 851.18 641.45 853.52   Q 656.69 890.70 658.66 895.54   Q 659.35 897.24 659.75 898.83   A 0.64 0.63 -6.8 0 1 659.13 899.61   L 652.22 899.61   A 2.41 2.39 -11.1 0 1 650.00 898.13   L 646.84 890.56   A 1.49 1.49 0.0 0 0 645.59 889.66   Q 645.25 889.63 635.03 889.60   Q 624.81 889.57 624.47 889.60   A 1.49 1.49 0.0 0 0 623.21 890.49   L 620.01 898.05   A 2.41 2.39 11.5 0 1 617.78 899.51   L 610.87 899.47   A 0.64 0.63 7.1 0 1 610.26 898.69   Q 610.67 897.10 611.37 895.41   Q 613.36 890.58 628.81 853.48   Q 629.79 851.15 630.68 850.16   A 1.35 1.35 0.0 0 1 631.56 849.73   Q 632.81 849.62 635.14 849.63   Z   M 635.01 880.39   Q 640.57 880.40 642.11 880.38   A 0.45 0.45 0.0 0 0 642.53 879.77   Q 639.20 870.77 636.10 863.56   Q 636.01 863.34 635.64 863.13   Q 635.36 862.97 635.04 862.97   Q 634.73 862.97 634.44 863.13   Q 634.07 863.34 633.98 863.56   Q 630.86 870.75 627.49 879.74   A 0.45 0.45 0.0 0 0 627.91 880.35   Q 629.46 880.38 635.01 880.39   Z" data-svg-id="svg-elem-1775664130217-7hri5a7go" id="svg-elem-1775664130217-7hri5a7go"/>
<path fill="#faf7f2" d="   M 460.61 898.15   A 1.47 1.47 0.0 0 1 459.14 899.62   L 451.90 899.62   A 1.50 1.50 0.0 0 1 450.40 898.12   L 450.40 850.70   A 1.01 1.01 0.0 0 1 451.41 849.69   Q 452.92 849.69 467.02 849.71   Q 474.81 849.72 477.77 850.90   C 483.36 853.11 487.82 856.45 489.18 862.52   Q 490.49 868.34 488.33 873.40   Q 484.33 882.79 472.72 883.57   Q 469.76 883.77 461.16 883.50   A 0.53 0.53 0.0 0 0 460.61 884.03   L 460.61 898.15   Z   M 460.64 859.00   L 460.64 874.76   A 0.23 0.23 0.0 0 0 460.87 874.99   L 471.66 874.99   A 7.72 6.72 0.0 0 0 479.38 868.27   L 479.38 865.49   A 7.72 6.72 0.0 0 0 471.66 858.77   L 460.87 858.77   A 0.23 0.23 0.0 0 0 460.64 859.00   Z" data-svg-id="svg-elem-1775664130217-m15tvil80" id="svg-elem-1775664130217-m15tvil80"/>
<rect fill="#faf7f2" x="516.36" y="849.76" width="10.22" height="49.88" rx="1.35" data-svg-id="svg-elem-1775664130217-q5t2t03i8" id="svg-elem-1775664130217-q5t2t03i8"/>
<path fill="#faf7f2" d="   M 573.71 849.72   Q 583.91 849.69 592.93 849.83   A 1.16 1.16 0.0 0 1 594.07 850.99   L 594.07 857.65   A 1.43 1.43 0.0 0 1 592.64 859.08   L 579.37 859.08   A 0.70 0.69 90.0 0 0 578.68 859.78   L 578.68 898.34   A 1.09 1.09 0.0 0 1 577.76 899.41   Q 576.26 899.65 573.60 899.64   Q 570.95 899.64 569.45 899.40   A 1.09 1.09 0.0 0 1 568.53 898.32   L 568.69 859.76   A 0.70 0.69 -89.8 0 0 568.00 859.06   L 554.73 859.00   A 1.43 1.43 0.0 0 1 553.31 857.57   L 553.34 850.91   A 1.16 1.16 0.0 0 1 554.48 849.75   Q 563.50 849.65 573.71 849.72   Z" data-svg-id="svg-elem-1775664130217-ddtg4zulk" id="svg-elem-1775664130217-ddtg4zulk"/>
<path fill="#faf7f2" d="   M 695.98 850.84   L 695.98 888.65   A 1.11 1.11 0.0 0 0 697.09 889.76   L 720.33 889.76   A 1.11 1.11 0.0 0 1 721.44 890.87   L 721.44 898.45   A 1.11 1.11 0.0 0 1 720.33 899.56   L 686.93 899.56   A 1.11 1.11 0.0 0 1 685.82 898.45   L 685.82 850.84   A 1.11 1.11 0.0 0 1 686.93 849.73   L 694.87 849.73   A 1.11 1.11 0.0 0 1 695.98 850.84   Z" data-svg-id="svg-elem-1775664130217-xvlxxnpo7" id="svg-elem-1775664130217-xvlxxnpo7"/>
</svg>